<mxfile host="app.diagrams.net" agent="Mozilla/5.0 (Windows NT 10.0; Win64; x64) AppleWebKit/537.36 (KHTML, like Gecko) Chrome/140.0.0.0 Safari/537.36" version="28.2.5">
  <diagram name="Page-1" id="Aj5_N3WaNxsP5dWTPXrr">
    <mxGraphModel dx="815" dy="429" grid="1" gridSize="10" guides="1" tooltips="1" connect="1" arrows="1" fold="1" page="1" pageScale="1" pageWidth="827" pageHeight="1169" math="0" shadow="0">
      <root>
        <mxCell id="0" />
        <mxCell id="1" parent="0" />
        <mxCell id="Qb6BTMtfL8MH-y7f0pIz-1" value="&lt;span data-teams=&quot;true&quot;&gt;SyncQueue&lt;/span&gt;" style="swimlane;fontStyle=0;childLayout=stackLayout;horizontal=1;startSize=26;fillColor=none;horizontalStack=0;resizeParent=1;resizeParentMax=0;resizeLast=0;collapsible=1;marginBottom=0;whiteSpace=wrap;html=1;" parent="1" vertex="1">
          <mxGeometry x="290" y="70" width="280" height="338" as="geometry" />
        </mxCell>
        <mxCell id="Qb6BTMtfL8MH-y7f0pIz-2" value="&lt;span data-teams=&quot;true&quot;&gt;&lt;font style=&quot;font-size: 9px;&quot;&gt;&amp;nbsp;ID : BIGINT IDENTITY(1,1) PRIMARY KEY&lt;/font&gt;&lt;/span&gt;" style="text;strokeColor=none;fillColor=none;align=left;verticalAlign=top;spacingLeft=4;spacingRight=4;overflow=hidden;rotatable=0;points=[[0,0.5],[1,0.5]];portConstraint=eastwest;whiteSpace=wrap;html=1;" parent="Qb6BTMtfL8MH-y7f0pIz-1" vertex="1">
          <mxGeometry y="26" width="280" height="26" as="geometry" />
        </mxCell>
        <mxCell id="Qb6BTMtfL8MH-y7f0pIz-3" value="&lt;span data-teams=&quot;true&quot;&gt;&lt;font style=&quot;font-size: 9px;&quot;&gt;SourceSystem : NVARCHAR(50)&amp;nbsp;&amp;nbsp; NOT NULL&lt;/font&gt;&lt;/span&gt;" style="text;strokeColor=none;fillColor=none;align=left;verticalAlign=top;spacingLeft=4;spacingRight=4;overflow=hidden;rotatable=0;points=[[0,0.5],[1,0.5]];portConstraint=eastwest;whiteSpace=wrap;html=1;" parent="Qb6BTMtfL8MH-y7f0pIz-1" vertex="1">
          <mxGeometry y="52" width="280" height="26" as="geometry" />
        </mxCell>
        <mxCell id="Qb6BTMtfL8MH-y7f0pIz-4" value="&lt;span data-teams=&quot;true&quot;&gt;&lt;font style=&quot;font-size: 9px;&quot;&gt;TargetSystem : NVARCHAR(50)&amp;nbsp;&amp;nbsp; NOT NULL&lt;/font&gt;&lt;/span&gt;" style="text;strokeColor=none;fillColor=none;align=left;verticalAlign=top;spacingLeft=4;spacingRight=4;overflow=hidden;rotatable=0;points=[[0,0.5],[1,0.5]];portConstraint=eastwest;whiteSpace=wrap;html=1;" parent="Qb6BTMtfL8MH-y7f0pIz-1" vertex="1">
          <mxGeometry y="78" width="280" height="26" as="geometry" />
        </mxCell>
        <mxCell id="MTBKCmyBLElkbQ5yRE9a-1" value="&lt;span data-teams=&quot;true&quot;&gt;&lt;font style=&quot;font-size: 9px;&quot;&gt;ObjectType : NVARCHAR(50)&amp;nbsp;&amp;nbsp; NOT NULL&lt;/font&gt;&lt;/span&gt;" style="text;strokeColor=none;fillColor=none;align=left;verticalAlign=top;spacingLeft=4;spacingRight=4;overflow=hidden;rotatable=0;points=[[0,0.5],[1,0.5]];portConstraint=eastwest;whiteSpace=wrap;html=1;" vertex="1" parent="Qb6BTMtfL8MH-y7f0pIz-1">
          <mxGeometry y="104" width="280" height="26" as="geometry" />
        </mxCell>
        <mxCell id="MTBKCmyBLElkbQ5yRE9a-2" value="&lt;span data-teams=&quot;true&quot;&gt;&lt;font style=&quot;font-size: 9px;&quot;&gt;ObjectId : NVARCHAR(100)&amp;nbsp; NOT NULL&lt;/font&gt;&lt;/span&gt;" style="text;strokeColor=none;fillColor=none;align=left;verticalAlign=top;spacingLeft=4;spacingRight=4;overflow=hidden;rotatable=0;points=[[0,0.5],[1,0.5]];portConstraint=eastwest;whiteSpace=wrap;html=1;" vertex="1" parent="Qb6BTMtfL8MH-y7f0pIz-1">
          <mxGeometry y="130" width="280" height="26" as="geometry" />
        </mxCell>
        <mxCell id="MTBKCmyBLElkbQ5yRE9a-3" value="&lt;span data-teams=&quot;true&quot;&gt;&lt;font style=&quot;font-size: 9px;&quot;&gt;&amp;nbsp;ActionType : NVARCHAR(20)&amp;nbsp;&amp;nbsp; NOT NULL&lt;/font&gt;&lt;/span&gt;" style="text;strokeColor=none;fillColor=none;align=left;verticalAlign=top;spacingLeft=4;spacingRight=4;overflow=hidden;rotatable=0;points=[[0,0.5],[1,0.5]];portConstraint=eastwest;whiteSpace=wrap;html=1;" vertex="1" parent="Qb6BTMtfL8MH-y7f0pIz-1">
          <mxGeometry y="156" width="280" height="26" as="geometry" />
        </mxCell>
        <mxCell id="MTBKCmyBLElkbQ5yRE9a-4" value="&lt;span data-teams=&quot;true&quot;&gt;&lt;font style=&quot;font-size: 9px;&quot;&gt;Payload : NVARCHAR(MAX)&amp;nbsp; NULL&lt;/font&gt;&lt;/span&gt;" style="text;strokeColor=none;fillColor=none;align=left;verticalAlign=top;spacingLeft=4;spacingRight=4;overflow=hidden;rotatable=0;points=[[0,0.5],[1,0.5]];portConstraint=eastwest;whiteSpace=wrap;html=1;" vertex="1" parent="Qb6BTMtfL8MH-y7f0pIz-1">
          <mxGeometry y="182" width="280" height="26" as="geometry" />
        </mxCell>
        <mxCell id="MTBKCmyBLElkbQ5yRE9a-5" value="&lt;span data-teams=&quot;true&quot;&gt;&lt;font style=&quot;font-size: 9px;&quot;&gt;Status : NVARCHAR(20) NOT NULL DEFAULT &#39;Pending&#39;&lt;/font&gt;&lt;/span&gt;" style="text;strokeColor=none;fillColor=none;align=left;verticalAlign=top;spacingLeft=4;spacingRight=4;overflow=hidden;rotatable=0;points=[[0,0.5],[1,0.5]];portConstraint=eastwest;whiteSpace=wrap;html=1;" vertex="1" parent="Qb6BTMtfL8MH-y7f0pIz-1">
          <mxGeometry y="208" width="280" height="26" as="geometry" />
        </mxCell>
        <mxCell id="MTBKCmyBLElkbQ5yRE9a-6" value="&lt;span data-teams=&quot;true&quot;&gt;&lt;font style=&quot;font-size: 9px;&quot;&gt;RetryCount : INT NOT NULL DEFAULT 0&lt;/font&gt;&lt;/span&gt;" style="text;strokeColor=none;fillColor=none;align=left;verticalAlign=top;spacingLeft=4;spacingRight=4;overflow=hidden;rotatable=0;points=[[0,0.5],[1,0.5]];portConstraint=eastwest;whiteSpace=wrap;html=1;" vertex="1" parent="Qb6BTMtfL8MH-y7f0pIz-1">
          <mxGeometry y="234" width="280" height="26" as="geometry" />
        </mxCell>
        <mxCell id="MTBKCmyBLElkbQ5yRE9a-7" value="&lt;span data-teams=&quot;true&quot;&gt;&lt;font style=&quot;font-size: 9px;&quot;&gt;ErrorMessage :&amp;nbsp; NVARCHAR(MAX)&amp;nbsp; NULL&lt;/font&gt;&lt;/span&gt;" style="text;strokeColor=none;fillColor=none;align=left;verticalAlign=top;spacingLeft=4;spacingRight=4;overflow=hidden;rotatable=0;points=[[0,0.5],[1,0.5]];portConstraint=eastwest;whiteSpace=wrap;html=1;" vertex="1" parent="Qb6BTMtfL8MH-y7f0pIz-1">
          <mxGeometry y="260" width="280" height="26" as="geometry" />
        </mxCell>
        <mxCell id="MTBKCmyBLElkbQ5yRE9a-8" value="&lt;span data-teams=&quot;true&quot;&gt;&lt;font style=&quot;font-size: 9px;&quot;&gt;CreatedAt:DATETIME2(0)&amp;nbsp;&amp;nbsp; NOT NULL DEFAULT SYSDATETIME()&lt;/font&gt;&lt;/span&gt;" style="text;strokeColor=none;fillColor=none;align=left;verticalAlign=top;spacingLeft=4;spacingRight=4;overflow=hidden;rotatable=0;points=[[0,0.5],[1,0.5]];portConstraint=eastwest;whiteSpace=wrap;html=1;" vertex="1" parent="Qb6BTMtfL8MH-y7f0pIz-1">
          <mxGeometry y="286" width="280" height="26" as="geometry" />
        </mxCell>
        <mxCell id="MTBKCmyBLElkbQ5yRE9a-9" value="&lt;span data-teams=&quot;true&quot;&gt;&lt;font style=&quot;font-size: 9px;&quot;&gt;ProcessedAt:DATETIME2(0)&amp;nbsp;&amp;nbsp; NULL&lt;/font&gt;&lt;/span&gt;" style="text;strokeColor=none;fillColor=none;align=left;verticalAlign=top;spacingLeft=4;spacingRight=4;overflow=hidden;rotatable=0;points=[[0,0.5],[1,0.5]];portConstraint=eastwest;whiteSpace=wrap;html=1;" vertex="1" parent="Qb6BTMtfL8MH-y7f0pIz-1">
          <mxGeometry y="312" width="280" height="26" as="geometry" />
        </mxCell>
        <mxCell id="MTBKCmyBLElkbQ5yRE9a-10" value="Status" style="swimlane;fontStyle=0;childLayout=stackLayout;horizontal=1;startSize=26;fillColor=none;horizontalStack=0;resizeParent=1;resizeParentMax=0;resizeLast=0;collapsible=1;marginBottom=0;whiteSpace=wrap;html=1;" vertex="1" parent="1">
          <mxGeometry x="40" y="20" width="210" height="78" as="geometry" />
        </mxCell>
        <mxCell id="MTBKCmyBLElkbQ5yRE9a-11" value="&lt;font style=&quot;font-size: 8px;&quot;&gt;&amp;nbsp;ID : BIGINT IDENTITY(1,1) PRIMARY KEY&lt;/font&gt;" style="text;strokeColor=none;fillColor=none;align=left;verticalAlign=top;spacingLeft=4;spacingRight=4;overflow=hidden;rotatable=0;points=[[0,0.5],[1,0.5]];portConstraint=eastwest;whiteSpace=wrap;html=1;" vertex="1" parent="MTBKCmyBLElkbQ5yRE9a-10">
          <mxGeometry y="26" width="210" height="26" as="geometry" />
        </mxCell>
        <mxCell id="MTBKCmyBLElkbQ5yRE9a-13" value="+ field: type" style="text;strokeColor=none;fillColor=none;align=left;verticalAlign=top;spacingLeft=4;spacingRight=4;overflow=hidden;rotatable=0;points=[[0,0.5],[1,0.5]];portConstraint=eastwest;whiteSpace=wrap;html=1;" vertex="1" parent="MTBKCmyBLElkbQ5yRE9a-10">
          <mxGeometry y="52" width="210" height="26" as="geometry" />
        </mxCell>
        <mxCell id="MTBKCmyBLElkbQ5yRE9a-16" value="Relation" style="endArrow=open;html=1;endSize=12;startArrow=diamondThin;startSize=14;startFill=0;edgeStyle=orthogonalEdgeStyle;rounded=0;entryX=0;entryY=0.5;entryDx=0;entryDy=0;exitX=0.271;exitY=0.995;exitDx=0;exitDy=0;exitPerimeter=0;" edge="1" parent="1" source="MTBKCmyBLElkbQ5yRE9a-13" target="Qb6BTMtfL8MH-y7f0pIz-4">
          <mxGeometry relative="1" as="geometry">
            <mxPoint x="79.79999999999994" y="160.04199999999994" as="sourcePoint" />
            <mxPoint x="249.9999999999999" y="198.91400000000002" as="targetPoint" />
          </mxGeometry>
        </mxCell>
        <mxCell id="MTBKCmyBLElkbQ5yRE9a-17" value="1..n" style="edgeLabel;resizable=0;html=1;align=left;verticalAlign=top;" connectable="0" vertex="1" parent="MTBKCmyBLElkbQ5yRE9a-16">
          <mxGeometry x="-1" relative="1" as="geometry" />
        </mxCell>
        <mxCell id="MTBKCmyBLElkbQ5yRE9a-18" value="1" style="edgeLabel;resizable=0;html=1;align=right;verticalAlign=top;" connectable="0" vertex="1" parent="MTBKCmyBLElkbQ5yRE9a-16">
          <mxGeometry x="1" relative="1" as="geometry" />
        </mxCell>
      </root>
    </mxGraphModel>
  </diagram>
</mxfile>
